<svg xmlns="http://www.w3.org/2000/svg" viewBox="0 0 100 100" role="img" aria-label="Claude mark">
  <!-- Editorial placeholder starburst mark referencing Claude (Anthropic); third-party mark used editorially. -->
  <g stroke="#D97757" stroke-width="8.5" stroke-linecap="round">
    <line x1="50" y1="8" x2="50" y2="33" />
    <line x1="50" y1="8" x2="50" y2="33" transform="rotate(30 50 50)" />
    <line x1="50" y1="8" x2="50" y2="33" transform="rotate(60 50 50)" />
    <line x1="50" y1="8" x2="50" y2="33" transform="rotate(90 50 50)" />
    <line x1="50" y1="8" x2="50" y2="33" transform="rotate(120 50 50)" />
    <line x1="50" y1="8" x2="50" y2="33" transform="rotate(150 50 50)" />
    <line x1="50" y1="8" x2="50" y2="33" transform="rotate(180 50 50)" />
    <line x1="50" y1="8" x2="50" y2="33" transform="rotate(210 50 50)" />
    <line x1="50" y1="8" x2="50" y2="33" transform="rotate(240 50 50)" />
    <line x1="50" y1="8" x2="50" y2="33" transform="rotate(270 50 50)" />
    <line x1="50" y1="8" x2="50" y2="33" transform="rotate(300 50 50)" />
    <line x1="50" y1="8" x2="50" y2="33" transform="rotate(330 50 50)" />
  </g>
</svg>
